<mxfile host="app.diagrams.net" modified="2022-04-17T00:19:29.676Z" agent="5.0 (Windows NT 10.0; Win64; x64) AppleWebKit/537.36 (KHTML, like Gecko) Chrome/100.0.4896.60 Safari/537.36 Edg/100.0.1185.29" etag="E5LqUzz8B6ORC8fgXL7D" version="16.6.4" type="github">
  <diagram id="64LRG9bBMK78Ly8qT016" name="Page-1">
    <mxGraphModel dx="525" dy="673" grid="1" gridSize="10" guides="1" tooltips="1" connect="1" arrows="1" fold="1" page="1" pageScale="1" pageWidth="850" pageHeight="1100" math="0" shadow="0">
      <root>
        <mxCell id="0" />
        <mxCell id="1" parent="0" />
        <mxCell id="KVjVUYEonaMg7oyapuyM-3" value="Comments Table&lt;hr&gt;id&lt;br&gt;&lt;br&gt;bug_id" style="rounded=0;whiteSpace=wrap;html=1;align=center;" vertex="1" parent="1">
          <mxGeometry x="50" y="50" width="150" height="80" as="geometry" />
        </mxCell>
        <mxCell id="KVjVUYEonaMg7oyapuyM-4" value="Bugs&lt;hr&gt;id&lt;br&gt;&lt;br&gt;description" style="rounded=0;whiteSpace=wrap;html=1;" vertex="1" parent="1">
          <mxGeometry x="50" y="300" width="150" height="100" as="geometry" />
        </mxCell>
        <mxCell id="KVjVUYEonaMg7oyapuyM-6" style="edgeStyle=orthogonalEdgeStyle;rounded=0;orthogonalLoop=1;jettySize=auto;html=1;exitX=1;exitY=0.25;exitDx=0;exitDy=0;entryX=1;entryY=0.5;entryDx=0;entryDy=0;" edge="1" parent="1" source="KVjVUYEonaMg7oyapuyM-5" target="KVjVUYEonaMg7oyapuyM-3">
          <mxGeometry relative="1" as="geometry">
            <Array as="points">
              <mxPoint x="200" y="610" />
              <mxPoint x="220" y="610" />
              <mxPoint x="220" y="90" />
            </Array>
          </mxGeometry>
        </mxCell>
        <mxCell id="KVjVUYEonaMg7oyapuyM-5" value="Replies&lt;hr&gt;id&lt;br&gt;&lt;br&gt;comment_id&lt;br&gt;&lt;br&gt;ancestor&lt;br&gt;&lt;br&gt;decendent" style="rounded=0;whiteSpace=wrap;html=1;" vertex="1" parent="1">
          <mxGeometry x="50" y="540" width="150" height="140" as="geometry" />
        </mxCell>
        <mxCell id="KVjVUYEonaMg7oyapuyM-8" value="" style="endArrow=classic;html=1;rounded=0;exitX=1;exitY=0.5;exitDx=0;exitDy=0;" edge="1" parent="1" source="KVjVUYEonaMg7oyapuyM-4">
          <mxGeometry width="50" height="50" relative="1" as="geometry">
            <mxPoint x="140" y="430" as="sourcePoint" />
            <mxPoint x="200" y="120" as="targetPoint" />
            <Array as="points">
              <mxPoint x="310" y="230" />
            </Array>
          </mxGeometry>
        </mxCell>
        <mxCell id="KVjVUYEonaMg7oyapuyM-9" value="" style="endArrow=classic;html=1;rounded=0;exitX=1.014;exitY=0.702;exitDx=0;exitDy=0;exitPerimeter=0;" edge="1" parent="1" source="KVjVUYEonaMg7oyapuyM-5">
          <mxGeometry width="50" height="50" relative="1" as="geometry">
            <mxPoint x="230" y="680" as="sourcePoint" />
            <mxPoint x="202" y="90" as="targetPoint" />
            <Array as="points">
              <mxPoint x="350" y="330" />
            </Array>
          </mxGeometry>
        </mxCell>
        <mxCell id="KVjVUYEonaMg7oyapuyM-10" value="" style="endArrow=classic;html=1;rounded=0;exitX=0.987;exitY=0.956;exitDx=0;exitDy=0;exitPerimeter=0;entryX=1;entryY=0.5;entryDx=0;entryDy=0;" edge="1" parent="1" source="KVjVUYEonaMg7oyapuyM-5" target="KVjVUYEonaMg7oyapuyM-3">
          <mxGeometry width="50" height="50" relative="1" as="geometry">
            <mxPoint x="240" y="680" as="sourcePoint" />
            <mxPoint x="290" y="630" as="targetPoint" />
            <Array as="points">
              <mxPoint x="280" y="380" />
            </Array>
          </mxGeometry>
        </mxCell>
      </root>
    </mxGraphModel>
  </diagram>
</mxfile>
